<?xml version="1.0" standalone="no"?><svg xmlns="http://www.w3.org/2000/svg" viewBox="0 0 1440 320"><path fill="#EF1928" fill-opacity="1" d="M0,192L0,288L60,288L60,96L120,96L120,256L180,256L180,160L240,160L240,224L300,224L300,160L360,160L360,160L420,160L420,192L480,192L480,192L540,192L540,160L600,160L600,320L660,320L660,96L720,96L720,32L780,32L780,288L840,288L840,224L900,224L900,96L960,96L960,160L1020,160L1020,192L1080,192L1080,224L1140,224L1140,160L1200,160L1200,32L1260,32L1260,288L1320,288L1320,64L1380,64L1380,192L1440,192L1440,320L1380,320L1380,320L1320,320L1320,320L1260,320L1260,320L1200,320L1200,320L1140,320L1140,320L1080,320L1080,320L1020,320L1020,320L960,320L960,320L900,320L900,320L840,320L840,320L780,320L780,320L720,320L720,320L660,320L660,320L600,320L600,320L540,320L540,320L480,320L480,320L420,320L420,320L360,320L360,320L300,320L300,320L240,320L240,320L180,320L180,320L120,320L120,320L60,320L60,320L0,320L0,320Z"></path></svg>