<?xml version="1.0" standalone="no"?><svg xmlns="http://www.w3.org/2000/svg" viewBox="0 0 1440 320"><path fill="#ffffff" fill-opacity="1" d="M0,0L0,192L40,192L40,288L80,288L80,320L120,320L120,320L160,320L160,0L200,0L200,128L240,128L240,256L280,256L280,128L320,128L320,224L360,224L360,288L400,288L400,96L440,96L440,224L480,224L480,128L520,128L520,192L560,192L560,160L600,160L600,128L640,128L640,256L680,256L680,160L720,160L720,192L760,192L760,0L800,0L800,224L840,224L840,256L880,256L880,0L920,0L920,128L960,128L960,64L1000,64L1000,192L1040,192L1040,288L1080,288L1080,160L1120,160L1120,256L1160,256L1160,160L1200,160L1200,128L1240,128L1240,96L1280,96L1280,64L1320,64L1320,224L1360,224L1360,256L1400,256L1400,32L1440,32L1440,320L1400,320L1400,320L1360,320L1360,320L1320,320L1320,320L1280,320L1280,320L1240,320L1240,320L1200,320L1200,320L1160,320L1160,320L1120,320L1120,320L1080,320L1080,320L1040,320L1040,320L1000,320L1000,320L960,320L960,320L920,320L920,320L880,320L880,320L840,320L840,320L800,320L800,320L760,320L760,320L720,320L720,320L680,320L680,320L640,320L640,320L600,320L600,320L560,320L560,320L520,320L520,320L480,320L480,320L440,320L440,320L400,320L400,320L360,320L360,320L320,320L320,320L280,320L280,320L240,320L240,320L200,320L200,320L160,320L160,320L120,320L120,320L80,320L80,320L40,320L40,320L0,320L0,320Z"></path></svg>