<?xml version="1.0" standalone="no"?><svg xmlns="http://www.w3.org/2000/svg" viewBox="0 0 1440 320"><path fill="#ffffff" fill-opacity="1" d="M0,0L0,256L53.3,256L53.3,224L106.7,224L106.7,160L160,160L160,64L213.3,64L213.3,192L266.7,192L266.7,64L320,64L320,128L373.3,128L373.3,256L426.7,256L426.7,256L480,256L480,96L533.3,96L533.3,96L586.7,96L586.7,96L640,96L640,128L693.3,128L693.3,288L746.7,288L746.7,96L800,96L800,32L853.3,32L853.3,160L906.7,160L906.7,192L960,192L960,192L1013.3,192L1013.3,128L1066.7,128L1066.7,192L1120,192L1120,96L1173.3,96L1173.3,128L1226.7,128L1226.7,64L1280,64L1280,96L1333.3,96L1333.3,256L1386.7,256L1386.7,96L1440,96L1440,320L1386.7,320L1386.7,320L1333.3,320L1333.3,320L1280,320L1280,320L1226.7,320L1226.7,320L1173.3,320L1173.3,320L1120,320L1120,320L1066.7,320L1066.7,320L1013.3,320L1013.3,320L960,320L960,320L906.7,320L906.7,320L853.3,320L853.3,320L800,320L800,320L746.7,320L746.7,320L693.3,320L693.3,320L640,320L640,320L586.7,320L586.7,320L533.3,320L533.3,320L480,320L480,320L426.7,320L426.7,320L373.3,320L373.3,320L320,320L320,320L266.7,320L266.7,320L213.3,320L213.3,320L160,320L160,320L106.7,320L106.7,320L53.3,320L53.3,320L0,320L0,320Z"></path></svg>